<?xml version="1.0" standalone="no"?>
<!DOCTYPE svg PUBLIC "-//W3C//DTD SVG 20010904//EN"
 "http://www.w3.org/TR/2001/REC-SVG-20010904/DTD/svg10.dtd">
<svg version="1.0" xmlns="http://www.w3.org/2000/svg"
 width="700.000000pt" height="700.000000pt" viewBox="0 0 700.000000 700.000000"
 preserveAspectRatio="xMidYMid meet">
<metadata>
Created by potrace 1.11, written by Peter Selinger 2001-2013
</metadata>
<g transform="translate(0.000000,700.000000) scale(0.100000,-0.100000)"
fill="#000000" stroke="none">
<path d="M5770 6351 c-98 -25 -177 -69 -245 -136 -75 -74 -110 -134 -134 -228
-34 -133 -13 -249 67 -370 90 -138 246 -224 419 -232 162 -8 304 46 416 158
223 222 182 564 -87 739 -119 77 -298 105 -436 69z"/>
<path d="M2385 5095 c-207 -32 -361 -108 -498 -247 -78 -80 -104 -118 -172
-252 -27 -55 -54 -98 -60 -98 -6 1 -11 95 -12 255 -1 138 -2 267 -2 285 l-1
32 -510 0 c-401 0 -510 -3 -511 -12 -1 -7 -2 -685 -3 -1505 l-1 -1493 541 0
541 0 0 893 c0 491 3 920 8 952 27 217 175 344 386 330 165 -11 294 -132 325
-305 4 -25 8 -454 9 -955 l0 -910 518 -3 517 -2 0 912 c1 716 4 926 14 973 46
212 210 322 420 284 168 -30 272 -158 291 -354 2 -16 4 -432 4 -922 l1 -893
540 0 541 0 -4 1098 c-2 603 -7 1115 -11 1137 -55 288 -186 504 -391 647 -254
176 -632 215 -953 97 -235 -86 -428 -270 -502 -481 -25 -72 -48 -72 -67 2 -19
76 -74 184 -127 252 -172 217 -511 332 -831 283z"/>
<path d="M5368 5063 c-3 -7 -2 -2955 1 -2990 1 -10 116 -13 539 -13 l539 0 0
1505 0 1505 -538 0 c-296 0 -539 -3 -541 -7z"/>
<path d="M1075 1549 c-250 -6 -258 -8 -353 -58 -186 -97 -284 -336 -226 -546
3 -11 19 -48 36 -83 56 -117 188 -219 318 -245 46 -10 660 -12 2672 -12 l2613
2 58 21 c84 30 138 64 195 123 255 260 123 703 -234 788 -40 10 -602 13 -2445
14 -1317 1 -2502 -1 -2634 -4z m5097 -158 c113 -44 204 -167 212 -285 10 -155
-84 -298 -227 -345 l-62 -21 -2605 1 -2605 0 -53 21 c-223 88 -288 381 -122
548 55 55 89 75 158 93 38 9 610 12 2648 11 l2599 -1 57 -22z"/>
</g>
</svg>
